/* XPM */
static char * izpack_32_xpm[] = {
"32 32 12 1",
" 	g None",
".	g #333333",
"+	g #666666",
"@	g #999999",
"#	g #000000",
"$	g #996600",
"%	g #FF9933",
"&	g #663300",
"*	g #CC6633",
"=	g #993300",
"-	g #330000",
";	g #333300",
".++++++++++++++++++++++++++++++.",
"+@@@@@@@@@@@@@@@@@@@@@@@@@@@@@@+",
"+@++++++++++++++++++++++++++++@+",
"+@+##########################+@+",
"+@+##########################+@+",
"+@+##########################+@+",
"+@+#$%%%%%%%%%$##############+@+",
"+@+###&%%%%%&################+@+",
"+@+####%%%%%#################+@+",
"+@+####%%%%%#################+@+",
"+@+####%%%%%#################+@+",
"+@+####%%%%%#################+@+",
"+@+####%%%%%#####%%%%%%%%%%*#+@+",
"+@+####%%%%%#####%%%=#-*%%%;#+@+",
"+@+####%%%%%#####%%&##*%%%=##+@+",
"+@+####%%%%%#####%$##&%%%*###+@+",
"+@+####%%%%%#####*##-*%%%&###+@+",
"+@+####%%%%%#####;##*%%%*####+@+",
"+@+####%%%%%#######&%%%*-##&#+@+",
"+@+####%%%%%######-*%%%&###*#+@+",
"+@+####%%%%%######*%%%*###*%#+@+",
"+@+####%%%%%#####&%%%%;##=%%#+@+",
"+@+###&%%%%%&###-*%%%$##=%%%#+@+",
"+@+#*%%%%%%%%%$#*%%%%%%%%%%%#+@+",
"+@+##########################+@+",
"+@+##########################+@+",
"+@+##########################+@+",
"+@+##########################+@+",
"+@+##########################+@+",
"+@++++++++++++++++++++++++++++@+",
"+@@@@@@@@@@@@@@@@@@@@@@@@@@@@@@+",
"................................"};
