/* XPM */
static char * izpack_16_xpm[] = {
"16 16 11 1",
" 	g None",
".	g #666666",
"+	g #333333",
"@	g #000000",
"#	g #663300",
"$	g #CC6633",
"%	g #FF9933",
"&	g #996600",
"*	g #330000",
"=	g #993300",
"-	g #333300",
"................",
".++++++++++++++.",
".+@@@@@@@@@@@@+.",
".+#$%%&*@@@@@@+.",
".+@=%%@@@@@@@@+.",
".+@#%%@@@@@@@@+.",
".+@#%%@@#%%%%$+.",
".+@#%%@@#=*%%*+.",
".+@#%%@@-@$%=@+.",
".+@#%%@@@#%$@#+.",
".+@=%%@@*%%-*%+.",
".+#$%%&*$%%%%%+.",
".+@@@@@@@@@@@@+.",
".+@@@@@@@@@@@@+.",
".++++++++++++++.",
"................"};
